<?xml version="1.0" ?><!DOCTYPE svg  PUBLIC '-//W3C//DTD SVG 1.1//EN'  'http://www.w3.org/Graphics/SVG/1.1/DTD/svg11.dtd'><svg enable-background="new 0 0 91 91" height="91px" id="Layer_1" version="1.1" viewBox="0 0 91 91" width="91px" xml:space="preserve" xmlns="http://www.w3.org/2000/svg" xmlns:xlink="http://www.w3.org/1999/xlink"><g><path d="M70.422,39.486l-2.404,2.404l4.141,4.139h-5.434c-0.814-9.114-8.086-16.387-17.199-17.201v-5.431   l4.137,4.14l2.404-2.404l-8.238-8.243l-8.244,8.243l2.404,2.404l4.137-4.137v5.428c-9.111,0.814-16.385,8.088-17.197,17.201h-5.434   l4.141-4.139l-2.404-2.404l-8.242,8.241l8.242,8.241l2.404-2.404l-4.137-4.135h5.43c0.814,9.112,8.086,16.384,17.197,17.197v5.429   l-4.137-4.136l-2.404,2.404l8.244,8.241l8.238-8.241l-2.404-2.404l-4.137,4.138v-5.431c9.113-0.813,16.385-8.085,17.199-17.197   h5.43l-4.137,4.135l2.404,2.404l8.244-8.241L70.422,39.486z M63.313,46.029h-3.111c-0.758-5.535-5.141-9.919-10.676-10.677V32.24   C56.764,33.029,62.523,38.791,63.313,46.029z M47.826,56.83c-5.02,0-9.102-4.082-9.102-9.101c0-5.021,4.082-9.106,9.102-9.106   s9.104,4.085,9.104,9.106C56.93,52.748,52.846,56.83,47.826,56.83z M46.125,32.24v3.112c-5.531,0.758-9.914,5.142-10.672,10.677   H32.34C33.129,38.791,38.889,33.029,46.125,32.24z M32.34,49.43h3.115c0.756,5.532,5.139,9.913,10.67,10.671v3.114   C38.889,62.426,33.129,56.666,32.34,49.43z M49.525,63.215v-3.114c5.535-0.757,9.918-5.139,10.676-10.671h3.111   C62.523,56.666,56.764,62.426,49.525,63.215z" fill="#010101"/></g></svg>